<?xml version="1.0" encoding="iso-8859-1"?>
<!-- Uploaded to: SVG Repo, www.svgrepo.com, Generator: SVG Repo Mixer Tools -->
<svg height="800px" width="800px" version="1.1" id="Layer_1" xmlns="http://www.w3.org/2000/svg" xmlns:xlink="http://www.w3.org/1999/xlink" 
	 viewBox="0 0 512 512" xml:space="preserve">
<g transform="translate(1 1)">
	<polygon style="fill:#DB4D6C;" points="404.423,280.6 404.423,357.4 319.09,357.4 319.09,280.6 250.823,280.6 250.823,502.467 
		319.09,502.467 319.09,425.667 404.423,425.667 404.423,502.467 472.69,502.467 472.69,280.6 	"/>
	<path style="fill:#FD9808;" d="M250.823,357.4v-76.8h51.2l25.6-52.053C377.97,127,304.583,7.533,191.09,7.533l0,0
		C76.743,7.533,3.356,127,53.703,228.547l137.387,273.92l59.733-120.32V357.4z"/>
	<path style="fill:#FFDD09;" d="M235.463,357.4v-76.8h46.08l23.04-52.053C350.663,127,283.25,7.533,180.85,7.533l0,0
		C78.45,7.533,11.89,127,57.116,228.547l133.973,273.92l44.373-120.32V357.4z"/>
	<path style="fill:#D21F47;" d="M276.423,161.133c0-46.933-38.4-85.333-85.333-85.333s-85.333,38.4-85.333,85.333
		s38.4,85.333,85.333,85.333S276.423,208.067,276.423,161.133"/>
	<path style="fill:#DB4D6C;" d="M250.823,161.133c0-46.933-32.427-85.333-72.533-85.333s-72.533,38.4-72.533,85.333
		s32.427,85.333,72.533,85.333S250.823,208.067,250.823,161.133"/>
	<path d="M191.09,255c-52.053,0-93.867-41.813-93.867-93.867s41.813-93.867,93.867-93.867s93.867,41.813,93.867,93.867
		S242.29,255,191.09,255z M191.09,84.333c-42.667,0-76.8,34.133-76.8,76.8s34.133,76.8,76.8,76.8s76.8-34.133,76.8-76.8
		S232.903,84.333,191.09,84.333z"/>
	<path d="M139.89,169.667c-5.12,0-8.533-3.413-8.533-8.533c0-33.28,26.453-59.733,59.733-59.733c5.12,0,8.533,3.413,8.533,8.533
		s-3.413,8.533-8.533,8.533c-23.893,0-42.667,18.773-42.667,42.667C148.423,166.253,144.156,169.667,139.89,169.667z"/>
	<path d="M472.69,511h-68.267c-5.12,0-8.533-3.413-8.533-8.533V434.2h-68.267v68.267c0,5.12-3.413,8.533-8.533,8.533h-68.267
		c-5.12,0-8.533-3.413-8.533-8.533V280.6c0-5.12,3.413-8.533,8.533-8.533h68.267c5.12,0,8.533,3.413,8.533,8.533v68.267h68.267
		V280.6c0-5.12,3.413-8.533,8.533-8.533h68.267c5.12,0,8.533,3.413,8.533,8.533v221.867C481.223,507.587,477.81,511,472.69,511z
		 M412.957,493.933h51.2v-204.8h-51.2V357.4c0,5.12-3.413,8.533-8.533,8.533H319.09c-5.12,0-8.533-3.413-8.533-8.533v-68.267h-51.2
		v204.8h51.2v-68.267c0-5.12,3.413-8.533,8.533-8.533h85.333c5.12,0,8.533,3.413,8.533,8.533V493.933z"/>
	<path d="M191.09,511c-3.413,0-5.973-1.707-7.68-5.12L46.023,232.813C20.423,182.467,23.836,123.587,52.85,75.8
		C82.716,28.013,133.917-1,191.09-1s107.52,29.013,137.387,76.8s32.427,106.667,6.827,157.013l-25.6,52.053
		c-1.707,2.56-5.12,4.267-7.68,4.267h-42.667v93.013c0,1.707,0,2.56-0.853,3.413l-60.587,120.32
		C197.063,509.293,193.65,511,191.09,511z M191.09,16.067c-51.2,0-96.427,25.6-122.88,68.267s-29.013,95.573-5.973,140.8
		l128.853,258.56l51.2-103.253V280.6c0-5.12,3.413-8.533,8.533-8.533h45.227l23.893-46.933c22.187-45.227,20.48-97.28-5.973-140.8
		C286.663,41.667,241.437,16.067,191.09,16.067z M250.823,382.147L250.823,382.147L250.823,382.147z"/>
</g>
</svg>